<?xml version="1.0" encoding="UTF-8" standalone="no"?>
<!-- Created with Inkscape (http://www.inkscape.org/) -->

<svg
   width="96"
   height="96"
   viewBox="0 0 25.399999 25.400001"
   version="1.1"
   id="svg5"
   xmlns="http://www.w3.org/2000/svg"
   xmlns:svg="http://www.w3.org/2000/svg">
  <defs
     id="defs2" />
  <g
     id="layer1">
    <path
       id="path967"
       style="fill:#4d4d4d;stroke-width:1.67775;stroke-linecap:round;stroke-linejoin:round"
       d="M 25.4,12.700001 A 12.700001,12.700001 0 0 1 12.700001,25.4 12.700001,12.700001 0 0 1 0,12.700001 12.700001,12.700001 0 0 1 12.700001,0 12.700001,12.700001 0 0 1 25.4,12.700001 Z" />
    <g
       id="g8"
       transform="matrix(0.01573125,0,0,0.01573125,4.8654421,4.731323)"
       style="fill:#ffffff">
      <path
         d="M 954.6,325.4 C 986.4,233.6 997.1,135.5 985.4,41.8 983.9,29.4 974.1,19.7 961.7,18.1 937,15 911.8,13.5 886.7,13.5 c -83.6,0 -166.1,16.6 -245,49.3 -81.6,33.8 -155.3,83.3 -219,146.9 -17.9,17.9 -34.7,36.7 -50.4,56.2 h -117 c -13.9,0 -27.4,5.6 -37.2,15.4 L 25.5,474.1 C 10.3,489.3 5.9,511.8 14,531.4 c 2.7,6.5 6.5,12.3 11.5,17.2 9.9,9.9 23.1,15.4 37.2,15.4 h 173.7 c -0.2,1.4 -0.5,2.8 -0.8,4.2 -1.5,8.7 1.3,17.6 7.6,23.8 l 168.4,168.4 c 5.2,5.2 12.1,8 19.3,8 0.5,0 1.1,0 1.7,-0.1 v 165.5 c 0,14.1 5.5,27.3 15.4,37.3 4.9,4.9 10.7,8.7 17.1,11.4 6.5,2.7 13.4,4 20.1,4 13.7,0 27.1,-5.4 37.2,-15.5 L 715,778.4 c 10,-9.9 15.5,-23.2 15.5,-37.3 V 636.8 c 22.1,-17.3 43.3,-35.9 63.4,-56 59.2,-59.2 107.1,-129 140.6,-204.2 1.5,-2.3 2.6,-4.8 3.2,-7.4 6.1,-14.4 11.8,-29 16.9,-43.8 z M 933.6,70 c 6.6,78.9 -3.8,160.6 -30.5,237.6 -0.7,1.9 -1.3,3.8 -2,5.7 L 690.3,102.5 C 754,79.6 820,68 886.7,68 c 15.6,0 31.3,0.7 46.9,2 z m -866.4,439.5 189,-189 H 333 c -12.3,18.9 -23.6,38.3 -33.9,58.3 -21.6,41.9 -38.5,85.7 -50.6,130.7 z M 676,740.4 487,929.4 V 757.1 c 47.5,-12.2 93.6,-29.7 137.8,-52.5 17.5,-9 34.6,-18.8 51.2,-29.3 z M 755.3,542.3 C 709.1,588.4 656.8,626.7 599.8,656.1 549,682.3 495.3,701 440,711.8 L 291.8,563.6 c 10.8,-55.3 29.5,-109 55.7,-159.8 29.4,-57 67.7,-109.3 113.8,-155.5 51.5,-51.5 110.1,-92.9 174.5,-123.3 l 242.7,242.7 c -30.4,64.2 -72.3,123.6 -123.2,174.6 z"
         id="path4"
         style="fill:#ffffff" />
      <path
         d="m 264.1,679.1 c -6.3,-6.3 -15.1,-9.1 -23.9,-7.6 -52,8.9 -99.7,33.8 -137.9,72 -27.8,27.8 -49.2,61.8 -61.8,98.2 -12.3,35.4 -16.4,73.3 -11.9,109.6 1.5,12.4 11.3,22.1 23.7,23.7 9.6,1.2 19.3,1.8 29.1,1.8 0,0 0,0 0,0 65.6,0 130.7,-27.5 178.8,-75.5 38.2,-38.2 63.1,-85.9 72,-137.9 1.5,-8.7 -1.3,-17.6 -7.6,-23.8 z m -42.5,183.6 c -37.9,37.9 -89,59.6 -140.2,59.6 0,0 0,0 0,0 0,-51 21.4,-102.2 59.5,-140.3 26.8,-26.8 59.5,-45.4 95.1,-54 l 39.7,39.7 c -8.8,35.6 -27.3,68.2 -54.1,95 z"
         id="path6"
         style="fill:#ffffff" />
    </g>
  </g>
</svg>
